<?xml version="1.0" encoding="UTF-8" standalone="no"?>
<!DOCTYPE svg PUBLIC "-//W3C//DTD SVG 1.1//EN"
 "http://www.w3.org/Graphics/SVG/1.1/DTD/svg11.dtd">
<!-- Generated by graphviz version 2.38.0 (20140413.2041)
 -->
<!-- Title: snakemake_dag Pages: 1 -->
<svg width="506pt" height="332pt"
 viewBox="0.00 0.00 506.00 332.00" xmlns="http://www.w3.org/2000/svg" xmlns:xlink="http://www.w3.org/1999/xlink">
<g id="graph0" class="graph" transform="scale(1 1) rotate(0) translate(4 328)">
<title>snakemake_dag</title>
<polygon fill="white" stroke="none" points="-4,4 -4,-328 502,-328 502,4 -4,4"/>
<!-- 0 -->
<g id="node1" class="node"><title>0</title>
<path fill="none" stroke="#c6d856" stroke-width="2" stroke-dasharray="5,2" d="M241,-36C241,-36 211,-36 211,-36 205,-36 199,-30 199,-24 199,-24 199,-12 199,-12 199,-6 205,-0 211,-0 211,-0 241,-0 241,-0 247,-0 253,-6 253,-12 253,-12 253,-24 253,-24 253,-30 247,-36 241,-36"/>
<text text-anchor="middle" x="226" y="-15.5" font-family="sans" font-size="10.00">all</text>
</g>
<!-- 1 -->
<g id="node2" class="node"><title>1</title>
<path fill="none" stroke="#56d87b" stroke-width="2" stroke-dasharray="5,2" d="M114,-108C114,-108 84,-108 84,-108 78,-108 72,-102 72,-96 72,-96 72,-84 72,-84 72,-78 78,-72 84,-72 84,-72 114,-72 114,-72 120,-72 126,-78 126,-84 126,-84 126,-96 126,-96 126,-102 120,-108 114,-108"/>
<text text-anchor="middle" x="99" y="-87.5" font-family="sans" font-size="10.00">count</text>
</g>
<!-- 1&#45;&gt;0 -->
<g id="edge1" class="edge"><title>1&#45;&gt;0</title>
<path fill="none" stroke="grey" stroke-width="2" d="M126.245,-73.9832C144.827,-63.7411 169.638,-50.0656 189.867,-38.9157"/>
<polygon fill="grey" stroke="grey" stroke-width="2" points="191.732,-41.8843 198.8,-33.9919 188.353,-35.7539 191.732,-41.8843"/>
</g>
<!-- 2 -->
<g id="node3" class="node"><title>2</title>
<path fill="none" stroke="#56d87b" stroke-width="2" stroke-dasharray="5,2" d="M202,-108C202,-108 172,-108 172,-108 166,-108 160,-102 160,-96 160,-96 160,-84 160,-84 160,-78 166,-72 172,-72 172,-72 202,-72 202,-72 208,-72 214,-78 214,-84 214,-84 214,-96 214,-96 214,-102 208,-108 202,-108"/>
<text text-anchor="middle" x="187" y="-87.5" font-family="sans" font-size="10.00">count</text>
</g>
<!-- 2&#45;&gt;0 -->
<g id="edge2" class="edge"><title>2&#45;&gt;0</title>
<path fill="none" stroke="grey" stroke-width="2" d="M196.64,-71.6966C201.127,-63.6436 206.559,-53.8945 211.524,-44.9824"/>
<polygon fill="grey" stroke="grey" stroke-width="2" points="214.661,-46.5435 216.47,-36.1043 208.546,-43.1366 214.661,-46.5435"/>
</g>
<!-- 3 -->
<g id="node4" class="node"><title>3</title>
<path fill="none" stroke="#56d87b" stroke-width="2" stroke-dasharray="5,2" d="M281,-108C281,-108 251,-108 251,-108 245,-108 239,-102 239,-96 239,-96 239,-84 239,-84 239,-78 245,-72 251,-72 251,-72 281,-72 281,-72 287,-72 293,-78 293,-84 293,-84 293,-96 293,-96 293,-102 287,-108 281,-108"/>
<text text-anchor="middle" x="266" y="-87.5" font-family="sans" font-size="10.00">count</text>
</g>
<!-- 3&#45;&gt;0 -->
<g id="edge3" class="edge"><title>3&#45;&gt;0</title>
<path fill="none" stroke="grey" stroke-width="2" d="M256.112,-71.6966C251.511,-63.6436 245.94,-53.8945 240.847,-44.9824"/>
<polygon fill="grey" stroke="grey" stroke-width="2" points="243.774,-43.0503 235.774,-36.1043 237.696,-46.5233 243.774,-43.0503"/>
</g>
<!-- 4 -->
<g id="node5" class="node"><title>4</title>
<path fill="none" stroke="#56d87b" stroke-width="2" stroke-dasharray="5,2" d="M367,-108C367,-108 337,-108 337,-108 331,-108 325,-102 325,-96 325,-96 325,-84 325,-84 325,-78 331,-72 337,-72 337,-72 367,-72 367,-72 373,-72 379,-78 379,-84 379,-84 379,-96 379,-96 379,-102 373,-108 367,-108"/>
<text text-anchor="middle" x="352" y="-87.5" font-family="sans" font-size="10.00">count</text>
</g>
<!-- 4&#45;&gt;0 -->
<g id="edge4" class="edge"><title>4&#45;&gt;0</title>
<path fill="none" stroke="grey" stroke-width="2" d="M324.97,-73.9832C306.659,-63.8108 282.253,-50.2515 262.259,-39.1436"/>
<polygon fill="grey" stroke="grey" stroke-width="2" points="263.862,-36.0304 253.42,-34.2335 260.462,-42.1495 263.862,-36.0304"/>
</g>
<!-- 5 -->
<g id="node6" class="node"><title>5</title>
<path fill="none" stroke="#d85656" stroke-width="2" stroke-dasharray="5,2" d="M100,-180C100,-180 70,-180 70,-180 64,-180 58,-174 58,-168 58,-168 58,-156 58,-156 58,-150 64,-144 70,-144 70,-144 100,-144 100,-144 106,-144 112,-150 112,-156 112,-156 112,-168 112,-168 112,-174 106,-180 100,-180"/>
<text text-anchor="middle" x="85" y="-159.5" font-family="sans" font-size="10.00">sort</text>
</g>
<!-- 5&#45;&gt;1 -->
<g id="edge5" class="edge"><title>5&#45;&gt;1</title>
<path fill="none" stroke="grey" stroke-width="2" d="M88.4607,-143.697C90.0035,-135.983 91.8575,-126.712 93.5775,-118.112"/>
<polygon fill="grey" stroke="grey" stroke-width="2" points="97.0499,-118.597 95.5791,-108.104 90.1859,-117.224 97.0499,-118.597"/>
</g>
<!-- 6 -->
<g id="node7" class="node"><title>6</title>
<path fill="none" stroke="#d85656" stroke-width="2" stroke-dasharray="5,2" d="M200,-180C200,-180 170,-180 170,-180 164,-180 158,-174 158,-168 158,-168 158,-156 158,-156 158,-150 164,-144 170,-144 170,-144 200,-144 200,-144 206,-144 212,-150 212,-156 212,-156 212,-168 212,-168 212,-174 206,-180 200,-180"/>
<text text-anchor="middle" x="185" y="-159.5" font-family="sans" font-size="10.00">sort</text>
</g>
<!-- 6&#45;&gt;2 -->
<g id="edge6" class="edge"><title>6&#45;&gt;2</title>
<path fill="none" stroke="grey" stroke-width="2" d="M185.494,-143.697C185.715,-135.983 185.98,-126.712 186.225,-118.112"/>
<polygon fill="grey" stroke="grey" stroke-width="2" points="189.724,-118.2 186.511,-108.104 182.727,-118 189.724,-118.2"/>
</g>
<!-- 7 -->
<g id="node8" class="node"><title>7</title>
<path fill="none" stroke="#d85656" stroke-width="2" stroke-dasharray="5,2" d="M324,-180C324,-180 294,-180 294,-180 288,-180 282,-174 282,-168 282,-168 282,-156 282,-156 282,-150 288,-144 294,-144 294,-144 324,-144 324,-144 330,-144 336,-150 336,-156 336,-156 336,-168 336,-168 336,-174 330,-180 324,-180"/>
<text text-anchor="middle" x="309" y="-159.5" font-family="sans" font-size="10.00">sort</text>
</g>
<!-- 7&#45;&gt;3 -->
<g id="edge7" class="edge"><title>7&#45;&gt;3</title>
<path fill="none" stroke="grey" stroke-width="2" d="M298.371,-143.697C293.372,-135.559 287.309,-125.689 281.788,-116.701"/>
<polygon fill="grey" stroke="grey" stroke-width="2" points="284.723,-114.793 276.507,-108.104 278.759,-118.457 284.723,-114.793"/>
</g>
<!-- 8 -->
<g id="node9" class="node"><title>8</title>
<path fill="none" stroke="#d85656" stroke-width="2" stroke-dasharray="5,2" d="M396,-180C396,-180 366,-180 366,-180 360,-180 354,-174 354,-168 354,-168 354,-156 354,-156 354,-150 360,-144 366,-144 366,-144 396,-144 396,-144 402,-144 408,-150 408,-156 408,-156 408,-168 408,-168 408,-174 402,-180 396,-180"/>
<text text-anchor="middle" x="381" y="-159.5" font-family="sans" font-size="10.00">sort</text>
</g>
<!-- 8&#45;&gt;4 -->
<g id="edge8" class="edge"><title>8&#45;&gt;4</title>
<path fill="none" stroke="grey" stroke-width="2" d="M373.831,-143.697C370.565,-135.813 366.626,-126.304 362.998,-117.546"/>
<polygon fill="grey" stroke="grey" stroke-width="2" points="366.147,-116.003 359.086,-108.104 359.68,-118.683 366.147,-116.003"/>
</g>
<!-- 9 -->
<g id="node10" class="node"><title>9</title>
<path fill="none" stroke="#56a2d8" stroke-width="2" stroke-dasharray="5,2" d="M85,-252C85,-252 55,-252 55,-252 49,-252 43,-246 43,-240 43,-240 43,-228 43,-228 43,-222 49,-216 55,-216 55,-216 85,-216 85,-216 91,-216 97,-222 97,-228 97,-228 97,-240 97,-240 97,-246 91,-252 85,-252"/>
<text text-anchor="middle" x="70" y="-231.5" font-family="sans" font-size="10.00">bam</text>
</g>
<!-- 9&#45;&gt;5 -->
<g id="edge9" class="edge"><title>9&#45;&gt;5</title>
<path fill="none" stroke="grey" stroke-width="2" d="M73.7079,-215.697C75.3608,-207.983 77.3473,-198.712 79.1902,-190.112"/>
<polygon fill="grey" stroke="grey" stroke-width="2" points="82.6617,-190.616 81.3348,-180.104 75.8171,-189.149 82.6617,-190.616"/>
</g>
<!-- 10 -->
<g id="node11" class="node"><title>10</title>
<path fill="none" stroke="#56a2d8" stroke-width="2" stroke-dasharray="5,2" d="M199,-252C199,-252 169,-252 169,-252 163,-252 157,-246 157,-240 157,-240 157,-228 157,-228 157,-222 163,-216 169,-216 169,-216 199,-216 199,-216 205,-216 211,-222 211,-228 211,-228 211,-240 211,-240 211,-246 205,-252 199,-252"/>
<text text-anchor="middle" x="184" y="-231.5" font-family="sans" font-size="10.00">bam</text>
</g>
<!-- 10&#45;&gt;6 -->
<g id="edge10" class="edge"><title>10&#45;&gt;6</title>
<path fill="none" stroke="grey" stroke-width="2" d="M184.247,-215.697C184.357,-207.983 184.49,-198.712 184.613,-190.112"/>
<polygon fill="grey" stroke="grey" stroke-width="2" points="188.112,-190.153 184.756,-180.104 181.113,-190.053 188.112,-190.153"/>
</g>
<!-- 11 -->
<g id="node12" class="node"><title>11</title>
<path fill="none" stroke="#56a2d8" stroke-width="2" stroke-dasharray="5,2" d="M328,-252C328,-252 298,-252 298,-252 292,-252 286,-246 286,-240 286,-240 286,-228 286,-228 286,-222 292,-216 298,-216 298,-216 328,-216 328,-216 334,-216 340,-222 340,-228 340,-228 340,-240 340,-240 340,-246 334,-252 328,-252"/>
<text text-anchor="middle" x="313" y="-231.5" font-family="sans" font-size="10.00">bam</text>
</g>
<!-- 11&#45;&gt;7 -->
<g id="edge11" class="edge"><title>11&#45;&gt;7</title>
<path fill="none" stroke="grey" stroke-width="2" d="M312.011,-215.697C311.57,-207.983 311.041,-198.712 310.549,-190.112"/>
<polygon fill="grey" stroke="grey" stroke-width="2" points="314.042,-189.888 309.977,-180.104 307.054,-190.288 314.042,-189.888"/>
</g>
<!-- 12 -->
<g id="node13" class="node"><title>12</title>
<path fill="none" stroke="#56a2d8" stroke-width="2" stroke-dasharray="5,2" d="M457,-252C457,-252 427,-252 427,-252 421,-252 415,-246 415,-240 415,-240 415,-228 415,-228 415,-222 421,-216 427,-216 427,-216 457,-216 457,-216 463,-216 469,-222 469,-228 469,-228 469,-240 469,-240 469,-246 463,-252 457,-252"/>
<text text-anchor="middle" x="442" y="-231.5" font-family="sans" font-size="10.00">bam</text>
</g>
<!-- 12&#45;&gt;8 -->
<g id="edge12" class="edge"><title>12&#45;&gt;8</title>
<path fill="none" stroke="grey" stroke-width="2" d="M426.921,-215.697C419.608,-207.305 410.69,-197.07 402.665,-187.861"/>
<polygon fill="grey" stroke="grey" stroke-width="2" points="405.114,-185.344 395.905,-180.104 399.836,-189.943 405.114,-185.344"/>
</g>
<!-- 13 -->
<g id="node14" class="node"><title>13</title>
<path fill="none" stroke="#56d8c9" stroke-width="2" stroke-dasharray="5,2" d="M98,-324C98,-324 12,-324 12,-324 6,-324 0,-318 0,-312 0,-312 0,-300 0,-300 0,-294 6,-288 12,-288 12,-288 98,-288 98,-288 104,-288 110,-294 110,-300 110,-300 110,-312 110,-312 110,-318 104,-324 98,-324"/>
<text text-anchor="middle" x="55" y="-309" font-family="sans" font-size="10.00">bwa</text>
<text text-anchor="middle" x="55" y="-298" font-family="sans" font-size="10.00">sample: control_R1</text>
</g>
<!-- 13&#45;&gt;9 -->
<g id="edge13" class="edge"><title>13&#45;&gt;9</title>
<path fill="none" stroke="grey" stroke-width="2" d="M58.7079,-287.697C60.3608,-279.983 62.3473,-270.712 64.1902,-262.112"/>
<polygon fill="grey" stroke="grey" stroke-width="2" points="67.6617,-262.616 66.3348,-252.104 60.8171,-261.149 67.6617,-262.616"/>
</g>
<!-- 14 -->
<g id="node15" class="node"><title>14</title>
<path fill="none" stroke="#56d8c9" stroke-width="2" stroke-dasharray="5,2" d="M228,-324C228,-324 140,-324 140,-324 134,-324 128,-318 128,-312 128,-312 128,-300 128,-300 128,-294 134,-288 140,-288 140,-288 228,-288 228,-288 234,-288 240,-294 240,-300 240,-300 240,-312 240,-312 240,-318 234,-324 228,-324"/>
<text text-anchor="middle" x="184" y="-309" font-family="sans" font-size="10.00">bwa</text>
<text text-anchor="middle" x="184" y="-298" font-family="sans" font-size="10.00">sample: treated_R1</text>
</g>
<!-- 14&#45;&gt;10 -->
<g id="edge14" class="edge"><title>14&#45;&gt;10</title>
<path fill="none" stroke="grey" stroke-width="2" d="M184,-287.697C184,-279.983 184,-270.712 184,-262.112"/>
<polygon fill="grey" stroke="grey" stroke-width="2" points="187.5,-262.104 184,-252.104 180.5,-262.104 187.5,-262.104"/>
</g>
<!-- 15 -->
<g id="node16" class="node"><title>15</title>
<path fill="none" stroke="#56d8c9" stroke-width="2" stroke-dasharray="5,2" d="M358,-324C358,-324 270,-324 270,-324 264,-324 258,-318 258,-312 258,-312 258,-300 258,-300 258,-294 264,-288 270,-288 270,-288 358,-288 358,-288 364,-288 370,-294 370,-300 370,-300 370,-312 370,-312 370,-318 364,-324 358,-324"/>
<text text-anchor="middle" x="314" y="-309" font-family="sans" font-size="10.00">bwa</text>
<text text-anchor="middle" x="314" y="-298" font-family="sans" font-size="10.00">sample: treated_R2</text>
</g>
<!-- 15&#45;&gt;11 -->
<g id="edge15" class="edge"><title>15&#45;&gt;11</title>
<path fill="none" stroke="grey" stroke-width="2" d="M313.753,-287.697C313.643,-279.983 313.51,-270.712 313.387,-262.112"/>
<polygon fill="grey" stroke="grey" stroke-width="2" points="316.887,-262.053 313.244,-252.104 309.888,-262.153 316.887,-262.053"/>
</g>
<!-- 16 -->
<g id="node17" class="node"><title>16</title>
<path fill="none" stroke="#56d8c9" stroke-width="2" stroke-dasharray="5,2" d="M486,-324C486,-324 400,-324 400,-324 394,-324 388,-318 388,-312 388,-312 388,-300 388,-300 388,-294 394,-288 400,-288 400,-288 486,-288 486,-288 492,-288 498,-294 498,-300 498,-300 498,-312 498,-312 498,-318 492,-324 486,-324"/>
<text text-anchor="middle" x="443" y="-309" font-family="sans" font-size="10.00">bwa</text>
<text text-anchor="middle" x="443" y="-298" font-family="sans" font-size="10.00">sample: control_R2</text>
</g>
<!-- 16&#45;&gt;12 -->
<g id="edge16" class="edge"><title>16&#45;&gt;12</title>
<path fill="none" stroke="grey" stroke-width="2" d="M442.753,-287.697C442.643,-279.983 442.51,-270.712 442.387,-262.112"/>
<polygon fill="grey" stroke="grey" stroke-width="2" points="445.887,-262.053 442.244,-252.104 438.888,-262.153 445.887,-262.053"/>
</g>
</g>
</svg>
